<svg xmlns="http://www.w3.org/2000/svg" width="364.373" height="48" viewBox="0 0 364.373 48">
  <path opacity=".05" d="M36.063 4.085c5.984 4.148 9.895 11.062 9.895 18.894 0 12.691-10.283 22.979-22.979 22.979-7.833 0-14.745-3.909-18.896-9.894a23.795 23.795 0 0 0 3.862 5.075 23.421 23.421 0 0 0 15.799 6.096c12.974 0 23.491-10.518 23.491-23.489a23.415 23.415 0 0 0-6.096-15.799 23.768 23.768 0 0 0-5.076-3.862zm5.076 3.861C45.074 12.147 47.49 17.788 47.49 24c0 12.974-10.518 23.489-23.492 23.489a23.4 23.4 0 0 1-16.054-6.351C12.193 45.37 18.038 48 24.51 48 37.482 48 48 37.482 48 24.511c0-6.47-2.631-12.317-6.861-16.565z"/>
  <path opacity=".1" d="M41.139 7.946a23.415 23.415 0 0 1 6.098 15.799c0 12.973-10.518 23.489-23.491 23.489a23.417 23.417 0 0 1-15.8-6.096 23.404 23.404 0 0 0 16.055 6.351c12.975 0 23.49-10.518 23.49-23.489a23.404 23.404 0 0 0-6.352-16.054z"/>
  <path opacity=".2" d="M30.895 1.403c8.799 3.222 15.064 11.66 15.064 21.58 0 12.691-10.285 22.979-22.979 22.979-9.916 0-18.355-6.266-21.572-15.064 4.009 12.338 17.26 19.093 29.598 15.085A23.484 23.484 0 0 0 47.24 23.75 23.485 23.485 0 0 0 30.9 1.409l-.005-.006z"/>
  <path fill="#242429" d="M23.49 0c12.975 0 23.49 10.517 23.49 23.489 0 12.974-10.516 23.489-23.49 23.489S0 36.463 0 23.489C0 10.517 10.516 0 23.49 0z"/>
  <path opacity=".1" d="M39.861 6.67a23.4 23.4 0 0 1 6.098 15.798c0 12.974-10.518 23.489-23.49 23.489a23.417 23.417 0 0 1-15.801-6.096c4.268 4.382 10.225 7.117 16.822 7.117 12.973 0 23.49-10.518 23.49-23.489 0-6.599-2.734-12.552-7.119-16.819z"/>
  <path fill-opacity=".1" d="M11.559 10.724h26.555v26.553H11.559V10.724z"/>
  <path fill="#29292E" d="M10.537 9.702h26.555v26.554H10.537V9.702z"/>
  <path fill="#85C1D3" d="M20.75 14.809v-2.042h-6.128v2.042h2.042v7.149h-2.042V24h6.128v-2.042h-2.043v-7.149m6.734 9.173c-1.234-.142-2.103-.946-2.88-1.655l1.239-1.4c.408.422 1.021.929 1.658 1.014.637.084 1.457.014 1.949-.402.493-.419.493-.985.493-1.662v-7.11h2.041L29.938 20c.004 1.438-.541 2.409-1.047 2.95-.807.826-1.852.909-2.826 1.045"/>
  <path fill="#DEDEDE" d="M12.58 31.149h10.213v2.042H12.58v-2.042z"/>
  <path fill="none" d="M53 13.749h311.373V34.25H53z"/>
  <path fill="none" d="M53 13.749h311.373V34.25H53z"/>
  <text transform="translate(53 30.27)">
    <tspan x="0" y="0" fill="#85C1D3" font-family="'Arciform'" font-size="22">Northem Dark</tspan><tspan x="126.652" y="0" font-family="'Arciform'" font-size="22"> </tspan><tspan x="133.473" y="0" fill="#242429" font-family="'Arciform'" font-size="22">IntelliJ IDEA Syntax</tspan>
  </text>
</svg>
