<svg xmlns="http://www.w3.org/2000/svg" width="888" height="420" viewBox="0 0 888 420">
  <path d="M83.202 413.361c-1.16.87-2.61 1.16-3.916 1.16-2.319 0-4.64-1.16-6.09-3.335L25.78 343.034v64.382c0 3.915-3.189 7.105-7.105 7.105-3.915 0-7.25-3.19-7.25-7.105v-87.147c-.29-2.755.87-5.51 3.335-7.105 3.335-2.175 7.831-1.305 10.005 2.176l47.271 70.182v-66.268c0-4.06 3.336-7.25 7.25-7.25 3.916 0 7.105 3.19 7.105 7.25v87.004c.436 2.753-.724 5.509-3.189 7.103zm11.306-35.526c0-20.155 16.386-36.396 36.396-36.396 20.156 0 36.396 16.24 36.396 36.396 0 20.012-16.24 36.396-36.396 36.396-20.01 0-36.396-16.384-36.396-36.396zm14.355 0c0 12.035 9.86 22.041 22.04 22.041 12.182 0 22.041-10.006 22.041-22.041 0-12.18-9.859-22.04-22.041-22.04-12.179 0-22.04 9.86-22.04 22.04zm110.632-29.146c0 3.915-3.189 7.251-7.25 7.251-12.18 0-22.041 9.859-22.041 22.04v29.146c0 3.916-3.189 7.25-7.104 7.25-4.061 0-7.251-3.334-7.251-7.25V377.98c0-20.155 16.387-36.396 36.396-36.396 4.061.001 7.25 3.19 7.25 7.105zm58.143 0c0 3.915-3.189 7.251-7.25 7.251h-10.295v51.186c0 3.916-3.189 7.25-7.25 7.25-3.915 0-7.105-3.334-7.105-7.25V355.94h-10.439c-3.916 0-7.105-3.336-7.105-7.251s3.189-7.104 7.105-7.104h10.439v-29.002c0-3.914 3.19-7.105 7.105-7.105 4.061 0 7.25 3.191 7.25 7.105v29.002h10.295c4.06 0 7.25 3.189 7.25 7.104zm72.789 24.652v33.641c0 4.061-3.336 7.25-7.252 7.25-3.914 0-7.104-3.189-7.104-7.25v-33.641c0-9.716-7.977-17.546-17.691-17.546s-17.545 7.83-17.545 17.546v33.641c0 4.061-3.191 7.25-7.25 7.25-3.915 0-7.105-3.189-7.105-7.25v-94.398c0-3.914 3.19-7.105 7.105-7.105 4.059 0 7.25 3.191 7.25 7.105v34.076c5.074-3.335 11.02-5.22 17.545-5.22 17.691-.001 32.047 14.355 32.047 31.901zm81.344 4.494c0 3.916-3.191 7.105-7.25 7.105h-50.027c3.045 8.7 11.166 14.936 20.881 14.936 3.336 0 9.279-.29 16.24-4.785 3.336-2.175 7.83-.145 9.57 3.335 1.74 3.626-.145 7.396-3.48 9.57-9.57 6.38-16.965 6.235-22.33 6.235-20.156 0-36.396-16.385-36.396-36.396 0-20.155 16.24-36.396 36.396-36.396 17.544 0 36.396 12.761 36.396 36.396zm-57.278-7.25h41.906c-3.045-10.15-12.324-14.79-21.025-14.79-9.715 0-17.836 6.235-20.881 14.79zm168.055.725c.145.291.145.436.145.726v35.236c0 4.06-3.334 7.25-7.25 7.25-3.914 0-7.105-3.19-7.105-7.25V370.73c0-8.119-6.67-14.645-14.789-14.645-8.121 0-14.791 6.525-14.791 14.645v36.542c0 4.06-3.189 7.25-7.105 7.25s-7.25-3.19-7.25-7.25V370.73a14.605 14.605 0 0 0-14.646-14.645c-8.119 0-14.789 6.525-14.789 14.645v36.542c0 4.06-3.191 7.25-7.105 7.25-4.061 0-7.25-3.19-7.25-7.25V370.73c0-15.949 13.051-29 29.145-29 8.701 0 16.531 3.77 21.896 10.005 5.365-6.235 13.195-10.005 21.896-10.005 16.094 0 29.145 13.051 29.145 29-.003.291-.003.435-.147.58zm61.477 43.066c-3.914 0-7.25-3.334-7.25-7.25v-87.147c0-4.06 3.336-7.396 7.25-7.396h21.025c7.686 0 14.936 1.596 21.752 4.496 6.525 2.899 12.324 7.104 16.965 12.47 4.641 5.22 8.121 11.311 10.295 18.126 2.176 6.96 2.9 14.21 2.031 21.75-1.451 12.326-7.396 23.637-16.676 32.047-9.281 8.265-21.461 12.904-33.932 12.904h-21.46zm21.461-14.5c18.416 0 33.932-13.775 36.105-32.046 1.307-10.876-1.738-21.025-8.555-28.711-6.959-7.685-16.965-12.035-27.986-12.035h-13.775v72.792h14.211zm131.08-21.461v28.422c0 4.205-3.045 7.25-7.25 7.25-2.9 0-6.961-3.045-6.961-7.25-6.234 5.219-13.195 7.25-21.459 7.25-20.447 0-36.688-15.227-36.688-35.672s16.24-36.686 36.688-36.686c20.446 0 35.67 16.241 35.67 36.686zm-14.211 0c0-12.18-9.279-22.475-21.459-22.475-12.182 0-22.477 10.295-22.477 22.475 0 12.181 10.295 21.461 22.477 21.461 12.18 0 21.459-9.28 21.459-21.461zm66.553-29.726c0 3.915-3.189 7.251-7.25 7.251-12.182 0-22.041 9.859-22.041 22.04v29.146c0 3.916-3.189 7.25-7.105 7.25-4.061 0-7.25-3.334-7.25-7.25V377.98c0-20.155 16.385-36.396 36.396-36.396 4.061.001 7.25 3.19 7.25 7.105zm65.102 63.512c-1.305 1.16-2.9 1.74-4.496 1.74-2.174 0-4.205-.87-5.51-2.61l-27.551-33.061-4.494 3.045v25.376c0 4.06-3.336 7.25-7.25 7.25-3.916 0-7.105-3.19-7.105-7.25v-93.963c0-3.915 3.189-7.105 7.105-7.105 3.914 0 7.25 3.19 7.25 7.105v51.622l32.916-21.606c3.045-2.465 7.539-2.175 10.15.87 2.465 3.045 2.029 7.686-1.016 10.15l-25.375 16.676 26.391 31.756c2.465 3.045 2.03 7.54-1.015 10.005z" fill="#85C1D3"/>
  <g fill-rule="evenodd" clip-rule="evenodd" fill="#242429">
    <path d="M444.278 265.478c-36.501-.99-66.604-13.465-91.942-37.787-7.58-7.277-8.665-13.961-1.881-22.247 5.909-7.22 11.067-15.05 16.767-22.446 6.954-9.025 10.77-8.907 18.03.225 1.21 1.523 2.313 3.132 3.517 4.66 7.073 8.997 11.243 9.164 18.093.213 7.806-10.196 15.342-20.604 22.922-30.971 5.548-7.588 11.009-7.832 16.688-.162 10.886 14.701 22.186 29.114 32.606 44.134 7.109 10.244 15.895 15.386 28.488 14.491 7.748-.548 15.568-.107 23.354-.065 3.14.019 6.624-.036 8.236 3.183 2.019 4.025-1.223 6.598-3.652 8.969-21.955 21.41-48.09 34-78.734 36.9-4.651.44-9.316.674-12.492.903z"/>
    <path d="M443.848 5.479c80.147-.155 141.416 71.865 128.404 151.159-.771 4.715 0 11.438-5.662 13.144-6.271 1.886-8.049-4.923-10.873-8.743-9.034-12.221-17.646-24.752-26.655-36.988-8.09-10.98-16.098-11.005-24.244-.25-4.466 5.9-8.508 12.127-13.051 17.967-7.992 10.271-15.625 10.309-23.41-.365-15.844-21.721-31.314-43.713-46.959-65.581-10.615-14.841-17.481-14.778-28.313.346-20.194 28.194-40.276 56.47-60.57 84.593-2.782 3.86-4.502 10.565-10.751 9.076-6.042-1.438-5.125-8.235-5.912-12.863C302.44 77.925 363.616 5.634 443.848 5.479z"/>
  </g>
</svg>
